<svg xmlns="http://www.w3.org/2000/svg" viewBox="0 0 72 40">
    <defs>
        <symbol id="deriv" viewBox="0 0 72 40">
            <g clip-path="url(#clip0_24482_19846)">
                <path d="M14.4238 4.80886L13.1912 11.7964H8.91248C4.92071 11.7964 1.11591 15.0293 0.410715 19.0195L0.112228 20.7179C-0.589682 24.7082 2.07366 27.9411 6.06543 27.9411H9.63407C12.5434 27.9411 15.315 25.5869 15.8267 22.6787L19.1133 4.0553L14.4238 4.80886ZM11.3878 22.0196C11.2304 22.918 10.4213 23.6492 9.52256 23.6492H7.35448C5.56031 23.6492 4.35984 22.1934 4.67471 20.3966L4.86168 19.3376C5.17983 17.5441 6.89199 16.0851 8.68615 16.0851H12.4347L11.3878 22.0196ZM47.3757 27.9408L50.1834 12.019H54.6245L51.8168 27.9408H47.3757ZM47.8561 12.2026C47.6335 13.4655 47.4099 14.7284 47.1873 15.9913C45.0833 15.3377 42.9125 15.5458 42.2456 15.6788C41.5254 19.7671 40.8042 23.8564 40.083 27.9447H35.6389C36.2424 24.5239 38.3042 12.8415 38.3042 12.8415C39.7496 12.2432 43.2991 11.0289 47.8561 12.2026ZM29.8494 11.7937H26.3924C23.0238 11.7937 19.8128 14.5217 19.219 17.8889L18.5204 21.8464C17.9267 25.2137 20.1736 27.9417 23.5422 27.9417H30.8959L31.6503 23.6629H24.7392C23.6175 23.6629 22.8664 22.7546 23.0665 21.63L23.0895 21.4956H34.2316L34.8679 17.8889C35.4615 14.5217 33.2148 11.7937 29.8462 11.7937H29.8494ZM30.4103 17.548L30.3841 17.7775H23.7586L23.7947 17.5742C23.9947 16.4528 25.0181 15.4659 26.143 15.4659H28.731C29.843 15.4659 30.5941 16.4365 30.4103 17.548ZM67.5083 12.019H71.9526C70.4387 16.0426 66.9691 22.887 63.6082 27.9408H59.1639C57.6212 23.1308 56.625 16.429 56.4349 12.019H60.8794C60.9596 13.4576 61.6038 18.7933 62.339 22.5208C64.3555 18.8945 66.5786 14.1366 67.5049 12.019H67.5083Z"/>
            </g>
            <defs>
                <clipPath id="clip0_24482_19846">
                    <rect width="72" height="23.8894" fill="white" transform="translate(0 4.0553)"/>
                </clipPath>
            </defs>
        </symbol>
    </defs>
</svg>
