<svg width="32" height="32" viewBox="0 0 32 32" fill="none" xmlns="http://www.w3.org/2000/svg">
<path d="M15.9219 9.11719C12.4062 9.74219 9.75 12.8281 9.75 16.5C9.75 20.6797 13.0703 24 17.2109 24C18.5391 24 19.7891 23.6484 20.8828 23.0625C16.7422 22.7109 13.4609 19.1953 13.4609 14.9375C13.4609 12.6719 14.3984 10.6016 15.9219 9.11719ZM18.5 8.29688C18.5781 8.57031 18.4609 8.84375 18.2266 8.96094C16.1172 10.1328 14.7109 12.3984 14.7109 14.9375C14.7109 18.7656 17.7969 21.8125 21.5859 21.8125C21.9766 21.8125 22.3672 21.8125 22.7578 21.7344C23.0312 21.6953 23.3047 21.8125 23.4219 22.0469C23.5391 22.3203 23.5 22.5938 23.3047 22.7891C21.7422 24.3125 19.5938 25.25 17.2109 25.25C12.4062 25.25 8.5 21.3438 8.5 16.5C8.5 11.6953 12.4062 7.75 17.2109 7.75C17.4453 7.75 17.7188 7.78906 17.9531 7.78906C18.2266 7.82812 18.4609 8.02344 18.5 8.29688Z" fill="black" fill-opacity="0.72"/>
</svg>
