<svg width="32" height="32" viewBox="0 0 32 32" fill="none" xmlns="http://www.w3.org/2000/svg">
<path d="M16 6.5C16.3125 6.5 16.625 6.8125 16.625 7.125V10.25C16.625 10.6016 16.3125 10.875 16 10.875C15.6484 10.875 15.375 10.6016 15.375 10.25V7.125C15.375 6.8125 15.6484 6.5 16 6.5ZM6 16.5C6 16.1875 6.27344 15.875 6.625 15.875H9.75C10.0625 15.875 10.375 16.1875 10.375 16.5C10.375 16.8516 10.0625 17.125 9.75 17.125H6.625C6.27344 17.125 6 16.8516 6 16.5ZM21.625 16.5C21.625 16.1875 21.8984 15.875 22.25 15.875H25.375C25.6875 15.875 26 16.1875 26 16.5C26 16.8516 25.6875 17.125 25.375 17.125H22.25C21.8984 17.125 21.625 16.8516 21.625 16.5ZM16 22.125C16.3125 22.125 16.625 22.4375 16.625 22.75V25.875C16.625 26.2266 16.3125 26.5 16 26.5C15.6484 26.5 15.375 26.2266 15.375 25.875V22.75C15.375 22.4375 15.6484 22.125 16 22.125ZM8.92969 9.42969C9.16406 9.19531 9.55469 9.19531 9.78906 9.42969L12.0156 11.6562C12.25 11.8906 12.25 12.2812 12.0156 12.5547C11.7812 12.7891 11.3516 12.7891 11.1172 12.5547L8.92969 10.3281C8.65625 10.0938 8.65625 9.70312 8.92969 9.42969ZM8.92969 23.5703C8.65625 23.3359 8.65625 22.9453 8.92969 22.7109L11.1172 20.4844C11.3516 20.25 11.7812 20.25 12.0156 20.4844C12.25 20.7188 12.25 21.1484 12.0156 21.3828L9.78906 23.5703C9.55469 23.8438 9.16406 23.8438 8.92969 23.5703ZM19.9453 12.5547C19.7109 12.2812 19.7109 11.8906 19.9453 11.6562L22.1719 9.42969C22.4062 9.19531 22.7969 9.19531 23.0703 9.42969C23.3047 9.70312 23.3047 10.0938 23.0703 10.3281L20.8438 12.5547C20.6094 12.7891 20.2188 12.7891 19.9453 12.5547ZM19.9453 20.4844C20.2188 20.25 20.6094 20.25 20.8438 20.4844L23.0703 22.7109C23.3047 22.9453 23.3047 23.3359 23.0703 23.5703C22.7969 23.8438 22.4062 23.8438 22.1719 23.5703L19.9453 21.3828C19.7109 21.1484 19.7109 20.7188 19.9453 20.4844ZM19.125 16.5C19.125 15.4062 18.5 14.3906 17.5625 13.8047C16.5859 13.2578 15.375 13.2578 14.4375 13.8047C13.4609 14.3906 12.875 15.4062 12.875 16.5C12.875 17.6328 13.4609 18.6484 14.4375 19.2344C15.375 19.7812 16.5859 19.7812 17.5625 19.2344C18.5 18.6484 19.125 17.6328 19.125 16.5ZM11.625 16.5C11.625 14.9375 12.4453 13.5312 13.8125 12.75C15.1406 11.9297 16.8203 11.9297 18.1875 12.75C19.5156 13.5312 20.375 14.9375 20.375 16.5C20.375 18.1016 19.5156 19.5078 18.1875 20.2891C16.8203 21.1094 15.1406 21.1094 13.8125 20.2891C12.4453 19.5078 11.625 18.1016 11.625 16.5Z" fill="white"/>
</svg>
